<svg xmlns="http://www.w3.org/2000/svg" width="1080" height="576" viewBox="0 0 1080 576">
<rect width="100%" height="100%" fill="#282c34"/>
<g font-family="Menlo, Consolas, 'DejaVu Sans Mono', monospace" font-size="15">
<rect x="0.0" y="0.0" width="18.0" height="18.0" fill="#282c34"/>
<rect x="18.0" y="0.0" width="216.0" height="18.0" fill="#282c34"/>
<text x="27.0" y="13.5" fill="#abb2bf" textLength="72.0" lengthAdjust="spacingAndGlyphs">Formula:</text>
<text x="108.0" y="13.5" fill="#abb2bf" textLength="81.0" lengthAdjust="spacingAndGlyphs">chain.opb</text>
<text x="198.0" y="13.5" fill="#abb2bf" textLength="27.0" lengthAdjust="spacingAndGlyphs">(5)</text>
<rect x="234.0" y="0.0" width="135.0" height="18.0" fill="#282c34"/>
<rect x="307.5" y="6.0" width="6.0" height="6" fill="none" stroke="#5c6370" stroke-width="1.2"/>
<path d="M334.5,7.5V5.0H337.0 M338.0,5.0H340.5V7.5 M340.5,10.5V13.0H338.0 M337.0,13.0H334.5V10.5" fill="none" stroke="#5c6370" stroke-width="1.2"/>
<text x="297.0" y="13.5" fill="#5c6370" textLength="9.0" lengthAdjust="spacingAndGlyphs">[</text>
<text x="315.0" y="13.5" fill="#5c6370" textLength="18.0" lengthAdjust="spacingAndGlyphs">][</text>
<text x="342.0" y="13.5" fill="#5c6370" textLength="9.0" lengthAdjust="spacingAndGlyphs">]</text>
<rect x="369.0" y="0.0" width="126.0" height="18.0" fill="#282c34"/>
<text x="378.0" y="13.5" fill="#abb2bf" textLength="72.0" lengthAdjust="spacingAndGlyphs">Database</text>
<text x="459.0" y="13.5" fill="#abb2bf" textLength="27.0" lengthAdjust="spacingAndGlyphs">(5)</text>
<rect x="495.0" y="0.0" width="225.0" height="18.0" fill="#282c34"/>
<rect x="658.5" y="6.0" width="6.0" height="6" fill="none" stroke="#5c6370" stroke-width="1.2"/>
<path d="M685.5,7.5V5.0H688.0 M689.0,5.0H691.5V7.5 M691.5,10.5V13.0H689.0 M688.0,13.0H685.5V10.5" fill="none" stroke="#5c6370" stroke-width="1.2"/>
<text x="648.0" y="13.5" fill="#5c6370" textLength="9.0" lengthAdjust="spacingAndGlyphs">[</text>
<text x="666.0" y="13.5" fill="#5c6370" textLength="18.0" lengthAdjust="spacingAndGlyphs">][</text>
<text x="693.0" y="13.5" fill="#5c6370" textLength="9.0" lengthAdjust="spacingAndGlyphs">]</text>
<rect x="720.0" y="0.0" width="225.0" height="18.0" fill="#282c34"/>
<text x="729.0" y="13.5" fill="#abb2bf" textLength="45.0" lengthAdjust="spacingAndGlyphs">Proof</text>
<text x="783.0" y="13.5" fill="#abb2bf" textLength="27.0" lengthAdjust="spacingAndGlyphs">(3)</text>
<text x="819.0" y="13.5" fill="#abb2bf" textLength="18.0" lengthAdjust="spacingAndGlyphs">(3</text>
<text x="846.0" y="13.5" fill="#abb2bf" textLength="90.0" lengthAdjust="spacingAndGlyphs">unchecked)</text>
<rect x="945.0" y="0.0" width="135.0" height="18.0" fill="#282c34"/>
<rect x="1027.5" y="6.0" width="6.0" height="6" fill="none" stroke="#5c6370" stroke-width="1.2"/>
<path d="M1054.5,7.5V5.0H1057.0 M1058.0,5.0H1060.5V7.5 M1060.5,10.5V13.0H1058.0 M1057.0,13.0H1054.5V10.5" fill="none" stroke="#5c6370" stroke-width="1.2"/>
<text x="1017.0" y="13.5" fill="#5c6370" textLength="9.0" lengthAdjust="spacingAndGlyphs">[</text>
<text x="1035.0" y="13.5" fill="#5c6370" textLength="18.0" lengthAdjust="spacingAndGlyphs">][</text>
<text x="1062.0" y="13.5" fill="#5c6370" textLength="9.0" lengthAdjust="spacingAndGlyphs">]</text>
<rect x="0.0" y="18.0" width="9.0" height="18.0" fill="#282c34"/>
<rect x="9.0" y="18.0" width="45.0" height="18.0" fill="#282c34"/>
<text x="9.0" y="31.5" fill="#abb2bf" textLength="18.0" lengthAdjust="spacingAndGlyphs">1:</text>
<text x="36.0" y="31.5" fill="#abb2bf" textLength="9.0" lengthAdjust="spacingAndGlyphs">1</text>
<rect x="54.0" y="18.0" width="18.0" height="18.0" fill="#282c34"/>
<text x="54.0" y="31.5" fill="#56b6c2" textLength="18.0" lengthAdjust="spacingAndGlyphs">x1</text>
<rect x="72.0" y="18.0" width="27.0" height="18.0" fill="#282c34"/>
<text x="81.0" y="31.5" fill="#abb2bf" textLength="9.0" lengthAdjust="spacingAndGlyphs">1</text>
<rect x="99.0" y="18.0" width="18.0" height="18.0" fill="#282c34"/>
<text x="99.0" y="31.5" fill="#56b6c2" textLength="18.0" lengthAdjust="spacingAndGlyphs">x2</text>
<rect x="117.0" y="18.0" width="234.0" height="18.0" fill="#282c34"/>
<text x="126.0" y="31.5" fill="#abb2bf" textLength="18.0" lengthAdjust="spacingAndGlyphs">&gt;=</text>
<text x="153.0" y="31.5" fill="#abb2bf" textLength="9.0" lengthAdjust="spacingAndGlyphs">1</text>
<rect x="351.0" y="18.0" width="9.0" height="18.0" fill="#282c34"/>
<rect x="360.0" y="18.0" width="45.0" height="18.0" fill="#253d28"/>
<text x="360.0" y="31.5" fill="#abb2bf" textLength="18.0" lengthAdjust="spacingAndGlyphs">1:</text>
<text x="387.0" y="31.5" fill="#abb2bf" textLength="9.0" lengthAdjust="spacingAndGlyphs">1</text>
<rect x="405.0" y="18.0" width="18.0" height="18.0" fill="#253d28"/>
<text x="405.0" y="31.5" fill="#56b6c2" textLength="18.0" lengthAdjust="spacingAndGlyphs">x1</text>
<rect x="423.0" y="18.0" width="27.0" height="18.0" fill="#253d28"/>
<text x="432.0" y="31.5" fill="#abb2bf" textLength="9.0" lengthAdjust="spacingAndGlyphs">1</text>
<rect x="450.0" y="18.0" width="18.0" height="18.0" fill="#253d28"/>
<text x="450.0" y="31.5" fill="#56b6c2" textLength="18.0" lengthAdjust="spacingAndGlyphs">x2</text>
<rect x="468.0" y="18.0" width="234.0" height="18.0" fill="#253d28"/>
<text x="477.0" y="31.5" fill="#abb2bf" textLength="18.0" lengthAdjust="spacingAndGlyphs">&gt;=</text>
<text x="504.0" y="31.5" fill="#abb2bf" textLength="9.0" lengthAdjust="spacingAndGlyphs">1</text>
<rect x="702.0" y="18.0" width="378.0" height="18.0" fill="#282c34"/>
<text x="729.0" y="31.5" fill="#5c6370" textLength="18.0" lengthAdjust="spacingAndGlyphs">1:</text>
<text x="756.0" y="31.5" fill="#5c6370" textLength="126.0" lengthAdjust="spacingAndGlyphs">pseudo-Boolean</text>
<text x="891.0" y="31.5" fill="#5c6370" textLength="45.0" lengthAdjust="spacingAndGlyphs">proof</text>
<text x="945.0" y="31.5" fill="#5c6370" textLength="63.0" lengthAdjust="spacingAndGlyphs">version</text>
<text x="1017.0" y="31.5" fill="#5c6370" textLength="27.0" lengthAdjust="spacingAndGlyphs">3.0</text>
<rect x="0.0" y="36.0" width="9.0" height="18.0" fill="#282c34"/>
<rect x="9.0" y="36.0" width="54.0" height="18.0" fill="#282c34"/>
<text x="9.0" y="49.5" fill="#abb2bf" textLength="18.0" lengthAdjust="spacingAndGlyphs">2:</text>
<text x="36.0" y="49.5" fill="#abb2bf" textLength="9.0" lengthAdjust="spacingAndGlyphs">1</text>
<text x="54.0" y="49.5" fill="#abb2bf" textLength="9.0" lengthAdjust="spacingAndGlyphs">~</text>
<rect x="63.0" y="36.0" width="18.0" height="18.0" fill="#282c34"/>
<text x="63.0" y="49.5" fill="#56b6c2" textLength="18.0" lengthAdjust="spacingAndGlyphs">x1</text>
<rect x="81.0" y="36.0" width="27.0" height="18.0" fill="#282c34"/>
<text x="90.0" y="49.5" fill="#abb2bf" textLength="9.0" lengthAdjust="spacingAndGlyphs">1</text>
<rect x="108.0" y="36.0" width="18.0" height="18.0" fill="#282c34"/>
<text x="108.0" y="49.5" fill="#56b6c2" textLength="18.0" lengthAdjust="spacingAndGlyphs">x3</text>
<rect x="126.0" y="36.0" width="225.0" height="18.0" fill="#282c34"/>
<text x="135.0" y="49.5" fill="#abb2bf" textLength="18.0" lengthAdjust="spacingAndGlyphs">&gt;=</text>
<text x="162.0" y="49.5" fill="#abb2bf" textLength="9.0" lengthAdjust="spacingAndGlyphs">1</text>
<rect x="351.0" y="36.0" width="9.0" height="18.0" fill="#282c34"/>
<rect x="360.0" y="36.0" width="54.0" height="18.0" fill="#253d28"/>
<text x="360.0" y="49.5" fill="#abb2bf" textLength="18.0" lengthAdjust="spacingAndGlyphs">2:</text>
<text x="387.0" y="49.5" fill="#abb2bf" textLength="9.0" lengthAdjust="spacingAndGlyphs">1</text>
<text x="405.0" y="49.5" fill="#abb2bf" textLength="9.0" lengthAdjust="spacingAndGlyphs">~</text>
<rect x="414.0" y="36.0" width="18.0" height="18.0" fill="#253d28"/>
<text x="414.0" y="49.5" fill="#56b6c2" textLength="18.0" lengthAdjust="spacingAndGlyphs">x1</text>
<rect x="432.0" y="36.0" width="27.0" height="18.0" fill="#253d28"/>
<text x="441.0" y="49.5" fill="#abb2bf" textLength="9.0" lengthAdjust="spacingAndGlyphs">1</text>
<rect x="459.0" y="36.0" width="18.0" height="18.0" fill="#253d28"/>
<text x="459.0" y="49.5" fill="#56b6c2" textLength="18.0" lengthAdjust="spacingAndGlyphs">x3</text>
<rect x="477.0" y="36.0" width="225.0" height="18.0" fill="#253d28"/>
<text x="486.0" y="49.5" fill="#abb2bf" textLength="18.0" lengthAdjust="spacingAndGlyphs">&gt;=</text>
<text x="513.0" y="49.5" fill="#abb2bf" textLength="9.0" lengthAdjust="spacingAndGlyphs">1</text>
<rect x="702.0" y="36.0" width="378.0" height="18.0" fill="#282c34"/>
<text x="729.0" y="49.5" fill="#5c6370" textLength="18.0" lengthAdjust="spacingAndGlyphs">2:</text>
<text x="756.0" y="49.5" fill="#5c6370" textLength="9.0" lengthAdjust="spacingAndGlyphs">f</text>
<text x="774.0" y="49.5" fill="#5c6370" textLength="18.0" lengthAdjust="spacingAndGlyphs">5;</text>
<rect x="0.0" y="54.0" width="9.0" height="18.0" fill="#282c34"/>
<rect x="9.0" y="54.0" width="54.0" height="18.0" fill="#282c34"/>
<text x="9.0" y="67.5" fill="#abb2bf" textLength="18.0" lengthAdjust="spacingAndGlyphs">3:</text>
<text x="36.0" y="67.5" fill="#abb2bf" textLength="9.0" lengthAdjust="spacingAndGlyphs">1</text>
<text x="54.0" y="67.5" fill="#abb2bf" textLength="9.0" lengthAdjust="spacingAndGlyphs">~</text>
<rect x="63.0" y="54.0" width="18.0" height="18.0" fill="#282c34"/>
<text x="63.0" y="67.5" fill="#56b6c2" textLength="18.0" lengthAdjust="spacingAndGlyphs">x2</text>
<rect x="81.0" y="54.0" width="27.0" height="18.0" fill="#282c34"/>
<text x="90.0" y="67.5" fill="#abb2bf" textLength="9.0" lengthAdjust="spacingAndGlyphs">1</text>
<rect x="108.0" y="54.0" width="18.0" height="18.0" fill="#282c34"/>
<text x="108.0" y="67.5" fill="#56b6c2" textLength="18.0" lengthAdjust="spacingAndGlyphs">x3</text>
<rect x="126.0" y="54.0" width="225.0" height="18.0" fill="#282c34"/>
<text x="135.0" y="67.5" fill="#abb2bf" textLength="18.0" lengthAdjust="spacingAndGlyphs">&gt;=</text>
<text x="162.0" y="67.5" fill="#abb2bf" textLength="9.0" lengthAdjust="spacingAndGlyphs">1</text>
<rect x="351.0" y="54.0" width="9.0" height="18.0" fill="#282c34"/>
<rect x="360.0" y="54.0" width="54.0" height="18.0" fill="#253d28"/>
<text x="360.0" y="67.5" fill="#abb2bf" textLength="18.0" lengthAdjust="spacingAndGlyphs">3:</text>
<text x="387.0" y="67.5" fill="#abb2bf" textLength="9.0" lengthAdjust="spacingAndGlyphs">1</text>
<text x="405.0" y="67.5" fill="#abb2bf" textLength="9.0" lengthAdjust="spacingAndGlyphs">~</text>
<rect x="414.0" y="54.0" width="18.0" height="18.0" fill="#253d28"/>
<text x="414.0" y="67.5" fill="#56b6c2" textLength="18.0" lengthAdjust="spacingAndGlyphs">x2</text>
<rect x="432.0" y="54.0" width="27.0" height="18.0" fill="#253d28"/>
<text x="441.0" y="67.5" fill="#abb2bf" textLength="9.0" lengthAdjust="spacingAndGlyphs">1</text>
<rect x="459.0" y="54.0" width="18.0" height="18.0" fill="#253d28"/>
<text x="459.0" y="67.5" fill="#56b6c2" textLength="18.0" lengthAdjust="spacingAndGlyphs">x3</text>
<rect x="477.0" y="54.0" width="225.0" height="18.0" fill="#253d28"/>
<text x="486.0" y="67.5" fill="#abb2bf" textLength="18.0" lengthAdjust="spacingAndGlyphs">&gt;=</text>
<text x="513.0" y="67.5" fill="#abb2bf" textLength="9.0" lengthAdjust="spacingAndGlyphs">1</text>
<rect x="702.0" y="54.0" width="9.0" height="18.0" fill="#282c34"/>
<rect x="711.0" y="54.0" width="99.0" height="18.0" fill="#7f1d1d"/>
<text x="729.0" y="67.5" fill="#abb2bf" textLength="18.0" lengthAdjust="spacingAndGlyphs">3:</text>
<text x="756.0" y="67.5" fill="#abb2bf" textLength="27.0" lengthAdjust="spacingAndGlyphs">rup</text>
<text x="792.0" y="67.5" fill="#abb2bf" textLength="9.0" lengthAdjust="spacingAndGlyphs">1</text>
<rect x="810.0" y="54.0" width="18.0" height="18.0" fill="#7f1d1d"/>
<text x="810.0" y="67.5" fill="#56b6c2" textLength="18.0" lengthAdjust="spacingAndGlyphs">x3</text>
<rect x="828.0" y="54.0" width="243.0" height="18.0" fill="#7f1d1d"/>
<text x="837.0" y="67.5" fill="#abb2bf" textLength="18.0" lengthAdjust="spacingAndGlyphs">&gt;=</text>
<text x="864.0" y="67.5" fill="#abb2bf" textLength="9.0" lengthAdjust="spacingAndGlyphs">1</text>
<text x="882.0" y="67.5" fill="#abb2bf" textLength="9.0" lengthAdjust="spacingAndGlyphs">:</text>
<text x="900.0" y="67.5" fill="#abb2bf" textLength="9.0" lengthAdjust="spacingAndGlyphs">1</text>
<text x="918.0" y="67.5" fill="#abb2bf" textLength="9.0" lengthAdjust="spacingAndGlyphs">2</text>
<text x="936.0" y="67.5" fill="#abb2bf" textLength="9.0" lengthAdjust="spacingAndGlyphs">3</text>
<text x="954.0" y="67.5" fill="#abb2bf" textLength="9.0" lengthAdjust="spacingAndGlyphs">;</text>
<rect x="1071.0" y="54.0" width="9.0" height="18.0" fill="#282c34"/>
<rect x="0.0" y="72.0" width="9.0" height="18.0" fill="#282c34"/>
<rect x="9.0" y="72.0" width="54.0" height="18.0" fill="#282c34"/>
<text x="9.0" y="85.5" fill="#abb2bf" textLength="18.0" lengthAdjust="spacingAndGlyphs">4:</text>
<text x="36.0" y="85.5" fill="#abb2bf" textLength="9.0" lengthAdjust="spacingAndGlyphs">1</text>
<text x="54.0" y="85.5" fill="#abb2bf" textLength="9.0" lengthAdjust="spacingAndGlyphs">~</text>
<rect x="63.0" y="72.0" width="18.0" height="18.0" fill="#282c34"/>
<text x="63.0" y="85.5" fill="#56b6c2" textLength="18.0" lengthAdjust="spacingAndGlyphs">x3</text>
<rect x="81.0" y="72.0" width="27.0" height="18.0" fill="#282c34"/>
<text x="90.0" y="85.5" fill="#abb2bf" textLength="9.0" lengthAdjust="spacingAndGlyphs">1</text>
<rect x="108.0" y="72.0" width="18.0" height="18.0" fill="#282c34"/>
<text x="108.0" y="85.5" fill="#56b6c2" textLength="18.0" lengthAdjust="spacingAndGlyphs">x4</text>
<rect x="126.0" y="72.0" width="225.0" height="18.0" fill="#282c34"/>
<text x="135.0" y="85.5" fill="#abb2bf" textLength="18.0" lengthAdjust="spacingAndGlyphs">&gt;=</text>
<text x="162.0" y="85.5" fill="#abb2bf" textLength="9.0" lengthAdjust="spacingAndGlyphs">1</text>
<rect x="351.0" y="72.0" width="9.0" height="18.0" fill="#282c34"/>
<rect x="360.0" y="72.0" width="54.0" height="18.0" fill="#253d28"/>
<text x="360.0" y="85.5" fill="#abb2bf" textLength="18.0" lengthAdjust="spacingAndGlyphs">4:</text>
<text x="387.0" y="85.5" fill="#abb2bf" textLength="9.0" lengthAdjust="spacingAndGlyphs">1</text>
<text x="405.0" y="85.5" fill="#abb2bf" textLength="9.0" lengthAdjust="spacingAndGlyphs">~</text>
<rect x="414.0" y="72.0" width="18.0" height="18.0" fill="#253d28"/>
<text x="414.0" y="85.5" fill="#56b6c2" textLength="18.0" lengthAdjust="spacingAndGlyphs">x3</text>
<rect x="432.0" y="72.0" width="27.0" height="18.0" fill="#253d28"/>
<text x="441.0" y="85.5" fill="#abb2bf" textLength="9.0" lengthAdjust="spacingAndGlyphs">1</text>
<rect x="459.0" y="72.0" width="18.0" height="18.0" fill="#253d28"/>
<text x="459.0" y="85.5" fill="#56b6c2" textLength="18.0" lengthAdjust="spacingAndGlyphs">x4</text>
<rect x="477.0" y="72.0" width="225.0" height="18.0" fill="#253d28"/>
<text x="486.0" y="85.5" fill="#abb2bf" textLength="18.0" lengthAdjust="spacingAndGlyphs">&gt;=</text>
<text x="513.0" y="85.5" fill="#abb2bf" textLength="9.0" lengthAdjust="spacingAndGlyphs">1</text>
<rect x="702.0" y="72.0" width="378.0" height="18.0" fill="#282c34"/>
<text x="729.0" y="85.5" fill="#5c6370" textLength="18.0" lengthAdjust="spacingAndGlyphs">4:</text>
<text x="756.0" y="85.5" fill="#5c6370" textLength="27.0" lengthAdjust="spacingAndGlyphs">rup</text>
<text x="792.0" y="85.5" fill="#5c6370" textLength="9.0" lengthAdjust="spacingAndGlyphs">1</text>
<text x="810.0" y="85.5" fill="#5c6370" textLength="27.0" lengthAdjust="spacingAndGlyphs">~x3</text>
<text x="846.0" y="85.5" fill="#5c6370" textLength="18.0" lengthAdjust="spacingAndGlyphs">&gt;=</text>
<text x="873.0" y="85.5" fill="#5c6370" textLength="9.0" lengthAdjust="spacingAndGlyphs">1</text>
<text x="891.0" y="85.5" fill="#5c6370" textLength="9.0" lengthAdjust="spacingAndGlyphs">:</text>
<text x="909.0" y="85.5" fill="#5c6370" textLength="9.0" lengthAdjust="spacingAndGlyphs">4</text>
<text x="927.0" y="85.5" fill="#5c6370" textLength="9.0" lengthAdjust="spacingAndGlyphs">5</text>
<text x="945.0" y="85.5" fill="#5c6370" textLength="9.0" lengthAdjust="spacingAndGlyphs">;</text>
<rect x="0.0" y="90.0" width="9.0" height="18.0" fill="#282c34"/>
<rect x="9.0" y="90.0" width="54.0" height="18.0" fill="#282c34"/>
<text x="9.0" y="103.5" fill="#abb2bf" textLength="18.0" lengthAdjust="spacingAndGlyphs">5:</text>
<text x="36.0" y="103.5" fill="#abb2bf" textLength="9.0" lengthAdjust="spacingAndGlyphs">1</text>
<text x="54.0" y="103.5" fill="#abb2bf" textLength="9.0" lengthAdjust="spacingAndGlyphs">~</text>
<rect x="63.0" y="90.0" width="18.0" height="18.0" fill="#282c34"/>
<text x="63.0" y="103.5" fill="#56b6c2" textLength="18.0" lengthAdjust="spacingAndGlyphs">x3</text>
<rect x="81.0" y="90.0" width="36.0" height="18.0" fill="#282c34"/>
<text x="90.0" y="103.5" fill="#abb2bf" textLength="9.0" lengthAdjust="spacingAndGlyphs">1</text>
<text x="108.0" y="103.5" fill="#abb2bf" textLength="9.0" lengthAdjust="spacingAndGlyphs">~</text>
<rect x="117.0" y="90.0" width="18.0" height="18.0" fill="#282c34"/>
<text x="117.0" y="103.5" fill="#56b6c2" textLength="18.0" lengthAdjust="spacingAndGlyphs">x4</text>
<rect x="135.0" y="90.0" width="216.0" height="18.0" fill="#282c34"/>
<text x="144.0" y="103.5" fill="#abb2bf" textLength="18.0" lengthAdjust="spacingAndGlyphs">&gt;=</text>
<text x="171.0" y="103.5" fill="#abb2bf" textLength="9.0" lengthAdjust="spacingAndGlyphs">1</text>
<rect x="351.0" y="90.0" width="9.0" height="18.0" fill="#282c34"/>
<rect x="360.0" y="90.0" width="54.0" height="18.0" fill="#253d28"/>
<text x="360.0" y="103.5" fill="#abb2bf" textLength="18.0" lengthAdjust="spacingAndGlyphs">5:</text>
<text x="387.0" y="103.5" fill="#abb2bf" textLength="9.0" lengthAdjust="spacingAndGlyphs">1</text>
<text x="405.0" y="103.5" fill="#abb2bf" textLength="9.0" lengthAdjust="spacingAndGlyphs">~</text>
<rect x="414.0" y="90.0" width="18.0" height="18.0" fill="#253d28"/>
<text x="414.0" y="103.5" fill="#56b6c2" textLength="18.0" lengthAdjust="spacingAndGlyphs">x3</text>
<rect x="432.0" y="90.0" width="36.0" height="18.0" fill="#253d28"/>
<text x="441.0" y="103.5" fill="#abb2bf" textLength="9.0" lengthAdjust="spacingAndGlyphs">1</text>
<text x="459.0" y="103.5" fill="#abb2bf" textLength="9.0" lengthAdjust="spacingAndGlyphs">~</text>
<rect x="468.0" y="90.0" width="18.0" height="18.0" fill="#253d28"/>
<text x="468.0" y="103.5" fill="#56b6c2" textLength="18.0" lengthAdjust="spacingAndGlyphs">x4</text>
<rect x="486.0" y="90.0" width="216.0" height="18.0" fill="#253d28"/>
<text x="495.0" y="103.5" fill="#abb2bf" textLength="18.0" lengthAdjust="spacingAndGlyphs">&gt;=</text>
<text x="522.0" y="103.5" fill="#abb2bf" textLength="9.0" lengthAdjust="spacingAndGlyphs">1</text>
<rect x="702.0" y="90.0" width="378.0" height="18.0" fill="#282c34"/>
<text x="729.0" y="103.5" fill="#5c6370" textLength="18.0" lengthAdjust="spacingAndGlyphs">5:</text>
<text x="756.0" y="103.5" fill="#5c6370" textLength="27.0" lengthAdjust="spacingAndGlyphs">rup</text>
<text x="792.0" y="103.5" fill="#5c6370" textLength="18.0" lengthAdjust="spacingAndGlyphs">&gt;=</text>
<text x="819.0" y="103.5" fill="#5c6370" textLength="9.0" lengthAdjust="spacingAndGlyphs">1</text>
<text x="837.0" y="103.5" fill="#5c6370" textLength="9.0" lengthAdjust="spacingAndGlyphs">:</text>
<text x="855.0" y="103.5" fill="#5c6370" textLength="9.0" lengthAdjust="spacingAndGlyphs">6</text>
<text x="873.0" y="103.5" fill="#5c6370" textLength="9.0" lengthAdjust="spacingAndGlyphs">7</text>
<text x="891.0" y="103.5" fill="#5c6370" textLength="9.0" lengthAdjust="spacingAndGlyphs">;</text>
<rect x="0.0" y="108.0" width="9.0" height="18.0" fill="#282c34"/>
<rect x="9.0" y="108.0" width="342.0" height="18.0" fill="#282c34"/>
<rect x="351.0" y="108.0" width="9.0" height="18.0" fill="#282c34"/>
<rect x="360.0" y="108.0" width="342.0" height="18.0" fill="#282c34"/>
<rect x="702.0" y="108.0" width="9.0" height="18.0" fill="#282c34"/>
<rect x="711.0" y="108.0" width="360.0" height="18.0" fill="#282c34"/>
<rect x="1071.0" y="108.0" width="9.0" height="18.0" fill="#282c34"/>
<rect x="0.0" y="126.0" width="9.0" height="18.0" fill="#282c34"/>
<rect x="9.0" y="126.0" width="342.0" height="18.0" fill="#282c34"/>
<rect x="351.0" y="126.0" width="9.0" height="18.0" fill="#282c34"/>
<rect x="360.0" y="126.0" width="342.0" height="18.0" fill="#282c34"/>
<rect x="702.0" y="126.0" width="9.0" height="18.0" fill="#282c34"/>
<rect x="711.0" y="126.0" width="360.0" height="18.0" fill="#282c34"/>
<rect x="1071.0" y="126.0" width="9.0" height="18.0" fill="#282c34"/>
<rect x="0.0" y="144.0" width="9.0" height="18.0" fill="#282c34"/>
<rect x="9.0" y="144.0" width="342.0" height="18.0" fill="#282c34"/>
<rect x="351.0" y="144.0" width="9.0" height="18.0" fill="#282c34"/>
<rect x="360.0" y="144.0" width="342.0" height="18.0" fill="#282c34"/>
<rect x="702.0" y="144.0" width="9.0" height="18.0" fill="#282c34"/>
<rect x="711.0" y="144.0" width="360.0" height="18.0" fill="#282c34"/>
<rect x="1071.0" y="144.0" width="9.0" height="18.0" fill="#282c34"/>
<rect x="0.0" y="162.0" width="9.0" height="18.0" fill="#282c34"/>
<rect x="9.0" y="162.0" width="342.0" height="18.0" fill="#282c34"/>
<rect x="351.0" y="162.0" width="9.0" height="18.0" fill="#282c34"/>
<rect x="360.0" y="162.0" width="342.0" height="18.0" fill="#282c34"/>
<rect x="702.0" y="162.0" width="9.0" height="18.0" fill="#282c34"/>
<rect x="711.0" y="162.0" width="360.0" height="18.0" fill="#282c34"/>
<rect x="1071.0" y="162.0" width="9.0" height="18.0" fill="#282c34"/>
<rect x="0.0" y="180.0" width="9.0" height="18.0" fill="#282c34"/>
<rect x="9.0" y="180.0" width="342.0" height="18.0" fill="#282c34"/>
<rect x="351.0" y="180.0" width="9.0" height="18.0" fill="#282c34"/>
<rect x="360.0" y="180.0" width="342.0" height="18.0" fill="#282c34"/>
<rect x="702.0" y="180.0" width="9.0" height="18.0" fill="#282c34"/>
<rect x="711.0" y="180.0" width="360.0" height="18.0" fill="#282c34"/>
<rect x="1071.0" y="180.0" width="9.0" height="18.0" fill="#282c34"/>
<rect x="0.0" y="198.0" width="9.0" height="18.0" fill="#282c34"/>
<rect x="9.0" y="198.0" width="342.0" height="18.0" fill="#282c34"/>
<rect x="351.0" y="198.0" width="9.0" height="18.0" fill="#282c34"/>
<rect x="360.0" y="198.0" width="342.0" height="18.0" fill="#282c34"/>
<rect x="702.0" y="198.0" width="9.0" height="18.0" fill="#282c34"/>
<rect x="711.0" y="198.0" width="360.0" height="18.0" fill="#282c34"/>
<rect x="1071.0" y="198.0" width="9.0" height="18.0" fill="#282c34"/>
<rect x="0.0" y="216.0" width="9.0" height="18.0" fill="#282c34"/>
<rect x="9.0" y="216.0" width="342.0" height="18.0" fill="#282c34"/>
<rect x="351.0" y="216.0" width="9.0" height="18.0" fill="#282c34"/>
<rect x="360.0" y="216.0" width="342.0" height="18.0" fill="#282c34"/>
<rect x="702.0" y="216.0" width="9.0" height="18.0" fill="#282c34"/>
<rect x="711.0" y="216.0" width="360.0" height="18.0" fill="#282c34"/>
<rect x="1071.0" y="216.0" width="9.0" height="18.0" fill="#282c34"/>
<rect x="0.0" y="234.0" width="9.0" height="18.0" fill="#282c34"/>
<rect x="9.0" y="234.0" width="342.0" height="18.0" fill="#282c34"/>
<rect x="351.0" y="234.0" width="9.0" height="18.0" fill="#282c34"/>
<rect x="360.0" y="234.0" width="342.0" height="18.0" fill="#282c34"/>
<rect x="702.0" y="234.0" width="9.0" height="18.0" fill="#282c34"/>
<rect x="711.0" y="234.0" width="360.0" height="18.0" fill="#282c34"/>
<rect x="1071.0" y="234.0" width="9.0" height="18.0" fill="#282c34"/>
<rect x="0.0" y="252.0" width="9.0" height="18.0" fill="#282c34"/>
<rect x="9.0" y="252.0" width="342.0" height="18.0" fill="#282c34"/>
<rect x="351.0" y="252.0" width="9.0" height="18.0" fill="#282c34"/>
<rect x="360.0" y="252.0" width="342.0" height="18.0" fill="#282c34"/>
<rect x="702.0" y="252.0" width="9.0" height="18.0" fill="#282c34"/>
<rect x="711.0" y="252.0" width="360.0" height="18.0" fill="#282c34"/>
<rect x="1071.0" y="252.0" width="9.0" height="18.0" fill="#282c34"/>
<rect x="0.0" y="270.0" width="9.0" height="18.0" fill="#282c34"/>
<rect x="9.0" y="270.0" width="342.0" height="18.0" fill="#282c34"/>
<rect x="351.0" y="270.0" width="9.0" height="18.0" fill="#282c34"/>
<rect x="360.0" y="270.0" width="342.0" height="18.0" fill="#282c34"/>
<rect x="702.0" y="270.0" width="9.0" height="18.0" fill="#282c34"/>
<rect x="711.0" y="270.0" width="360.0" height="18.0" fill="#282c34"/>
<rect x="1071.0" y="270.0" width="9.0" height="18.0" fill="#282c34"/>
<rect x="0.0" y="288.0" width="9.0" height="18.0" fill="#282c34"/>
<rect x="9.0" y="288.0" width="342.0" height="18.0" fill="#282c34"/>
<rect x="351.0" y="288.0" width="9.0" height="18.0" fill="#282c34"/>
<rect x="360.0" y="288.0" width="342.0" height="18.0" fill="#282c34"/>
<rect x="702.0" y="288.0" width="9.0" height="18.0" fill="#282c34"/>
<rect x="711.0" y="288.0" width="360.0" height="18.0" fill="#282c34"/>
<rect x="1071.0" y="288.0" width="9.0" height="18.0" fill="#282c34"/>
<rect x="0.0" y="306.0" width="9.0" height="18.0" fill="#282c34"/>
<rect x="9.0" y="306.0" width="342.0" height="18.0" fill="#282c34"/>
<rect x="351.0" y="306.0" width="9.0" height="18.0" fill="#282c34"/>
<rect x="360.0" y="306.0" width="342.0" height="18.0" fill="#282c34"/>
<rect x="702.0" y="306.0" width="9.0" height="18.0" fill="#282c34"/>
<rect x="711.0" y="306.0" width="360.0" height="18.0" fill="#282c34"/>
<rect x="1071.0" y="306.0" width="9.0" height="18.0" fill="#282c34"/>
<rect x="0.0" y="324.0" width="9.0" height="18.0" fill="#282c34"/>
<rect x="9.0" y="324.0" width="342.0" height="18.0" fill="#282c34"/>
<rect x="351.0" y="324.0" width="9.0" height="18.0" fill="#282c34"/>
<rect x="360.0" y="324.0" width="342.0" height="18.0" fill="#282c34"/>
<rect x="702.0" y="324.0" width="9.0" height="18.0" fill="#282c34"/>
<rect x="711.0" y="324.0" width="360.0" height="18.0" fill="#282c34"/>
<rect x="1071.0" y="324.0" width="9.0" height="18.0" fill="#282c34"/>
<rect x="0.0" y="342.0" width="18.0" height="18.0" fill="#282c34"/>
<rect x="18.0" y="342.0" width="72.0" height="18.0" fill="#282c34"/>
<text x="27.0" y="355.5" fill="#abb2bf" textLength="54.0" lengthAdjust="spacingAndGlyphs">Output</text>
<rect x="90.0" y="342.0" width="990.0" height="18.0" fill="#282c34"/>
<rect x="1027.5" y="348.0" width="6.0" height="6" fill="none" stroke="#5c6370" stroke-width="1.2"/>
<path d="M1054.5,349.5V347.0H1057.0 M1058.0,347.0H1060.5V349.5 M1060.5,352.5V355.0H1058.0 M1057.0,355.0H1054.5V352.5" fill="none" stroke="#5c6370" stroke-width="1.2"/>
<text x="1017.0" y="355.5" fill="#5c6370" textLength="9.0" lengthAdjust="spacingAndGlyphs">[</text>
<text x="1035.0" y="355.5" fill="#5c6370" textLength="18.0" lengthAdjust="spacingAndGlyphs">][</text>
<text x="1062.0" y="355.5" fill="#5c6370" textLength="9.0" lengthAdjust="spacingAndGlyphs">]</text>
<rect x="0.0" y="360.0" width="9.0" height="18.0" fill="#282c34"/>
<rect x="9.0" y="360.0" width="180.0" height="18.0" fill="#282c34"/>
<text x="9.0" y="373.5" fill="#abb2bf" font-weight="bold" textLength="36.0" lengthAdjust="spacingAndGlyphs">Line</text>
<text x="54.0" y="373.5" fill="#abb2bf" font-weight="bold" textLength="9.0" lengthAdjust="spacingAndGlyphs">3</text>
<text x="72.0" y="373.5" fill="#abb2bf" font-weight="bold" textLength="18.0" lengthAdjust="spacingAndGlyphs">is</text>
<text x="99.0" y="373.5" fill="#abb2bf" font-weight="bold" textLength="81.0" lengthAdjust="spacingAndGlyphs">rejected:</text>
<rect x="189.0" y="360.0" width="873.0" height="18.0" fill="#282c34"/>
<text x="189.0" y="373.5" fill="#e06c75" textLength="27.0" lengthAdjust="spacingAndGlyphs">The</text>
<text x="225.0" y="373.5" fill="#e06c75" textLength="90.0" lengthAdjust="spacingAndGlyphs">constraint</text>
<text x="324.0" y="373.5" fill="#e06c75" textLength="18.0" lengthAdjust="spacingAndGlyphs">is</text>
<text x="351.0" y="373.5" fill="#e06c75" textLength="27.0" lengthAdjust="spacingAndGlyphs">not</text>
<text x="387.0" y="373.5" fill="#e06c75" textLength="63.0" lengthAdjust="spacingAndGlyphs">implied</text>
<text x="459.0" y="373.5" fill="#e06c75" textLength="18.0" lengthAdjust="spacingAndGlyphs">by</text>
<text x="486.0" y="373.5" fill="#e06c75" textLength="63.0" lengthAdjust="spacingAndGlyphs">reverse</text>
<text x="558.0" y="373.5" fill="#e06c75" textLength="36.0" lengthAdjust="spacingAndGlyphs">unit</text>
<text x="603.0" y="373.5" fill="#e06c75" textLength="99.0" lengthAdjust="spacingAndGlyphs">propagation</text>
<text x="711.0" y="373.5" fill="#e06c75" textLength="45.0" lengthAdjust="spacingAndGlyphs">(RUP)</text>
<text x="765.0" y="373.5" fill="#e06c75" textLength="36.0" lengthAdjust="spacingAndGlyphs">from</text>
<text x="810.0" y="373.5" fill="#e06c75" textLength="36.0" lengthAdjust="spacingAndGlyphs">core</text>
<text x="855.0" y="373.5" fill="#e06c75" textLength="27.0" lengthAdjust="spacingAndGlyphs">and</text>
<text x="891.0" y="373.5" fill="#e06c75" textLength="63.0" lengthAdjust="spacingAndGlyphs">derived</text>
<text x="963.0" y="373.5" fill="#e06c75" textLength="81.0" lengthAdjust="spacingAndGlyphs">database.</text>
<text x="1053.0" y="373.5" fill="#e06c75" textLength="9.0" lengthAdjust="spacingAndGlyphs">R</text>
<rect x="1062.0" y="360.0" width="18.0" height="18.0" fill="#282c34"/>
<rect x="0.0" y="378.0" width="9.0" height="18.0" fill="#282c34"/>
<rect x="9.0" y="378.0" width="18.0" height="18.0" fill="#282c34"/>
<rect x="27.0" y="378.0" width="108.0" height="18.0" fill="#282c34"/>
<text x="27.0" y="391.5" fill="#5c6370" textLength="45.0" lengthAdjust="spacingAndGlyphs">Typed</text>
<text x="81.0" y="391.5" fill="#5c6370" textLength="54.0" lengthAdjust="spacingAndGlyphs">hints:</text>
<rect x="135.0" y="378.0" width="927.0" height="18.0" fill="#282c34"/>
<text x="144.0" y="391.5" fill="#abb2bf" textLength="9.0" lengthAdjust="spacingAndGlyphs">1</text>
<text x="162.0" y="391.5" fill="#abb2bf" textLength="9.0" lengthAdjust="spacingAndGlyphs">2</text>
<rect x="1062.0" y="378.0" width="18.0" height="18.0" fill="#282c34"/>
<rect x="0.0" y="396.0" width="9.0" height="18.0" fill="#282c34"/>
<rect x="9.0" y="396.0" width="18.0" height="18.0" fill="#282c34"/>
<rect x="27.0" y="396.0" width="711.0" height="18.0" fill="#282c34"/>
<text x="27.0" y="409.5" fill="#98c379" textLength="63.0" lengthAdjust="spacingAndGlyphs">Without</text>
<text x="99.0" y="409.5" fill="#98c379" textLength="45.0" lengthAdjust="spacingAndGlyphs">hints</text>
<text x="153.0" y="409.5" fill="#98c379" textLength="18.0" lengthAdjust="spacingAndGlyphs">it</text>
<text x="180.0" y="409.5" fill="#98c379" textLength="36.0" lengthAdjust="spacingAndGlyphs">DOES</text>
<text x="225.0" y="409.5" fill="#98c379" textLength="45.0" lengthAdjust="spacingAndGlyphs">check</text>
<text x="279.0" y="409.5" fill="#98c379" textLength="9.0" lengthAdjust="spacingAndGlyphs">—</text>
<text x="297.0" y="409.5" fill="#98c379" textLength="27.0" lengthAdjust="spacingAndGlyphs">the</text>
<text x="333.0" y="409.5" fill="#98c379" textLength="36.0" lengthAdjust="spacingAndGlyphs">hint</text>
<text x="378.0" y="409.5" fill="#98c379" textLength="36.0" lengthAdjust="spacingAndGlyphs">list</text>
<text x="423.0" y="409.5" fill="#98c379" textLength="18.0" lengthAdjust="spacingAndGlyphs">is</text>
<text x="450.0" y="409.5" fill="#98c379" textLength="27.0" lengthAdjust="spacingAndGlyphs">the</text>
<text x="486.0" y="409.5" fill="#98c379" textLength="72.0" lengthAdjust="spacingAndGlyphs">problem.</text>
<text x="567.0" y="409.5" fill="#98c379" textLength="27.0" lengthAdjust="spacingAndGlyphs">The</text>
<text x="603.0" y="409.5" fill="#98c379" textLength="63.0" lengthAdjust="spacingAndGlyphs">checker</text>
<text x="675.0" y="409.5" fill="#98c379" textLength="63.0" lengthAdjust="spacingAndGlyphs">needed:</text>
<rect x="738.0" y="396.0" width="324.0" height="18.0" fill="#282c34"/>
<rect x="1062.0" y="396.0" width="18.0" height="18.0" fill="#282c34"/>
<rect x="0.0" y="414.0" width="9.0" height="18.0" fill="#282c34"/>
<rect x="9.0" y="414.0" width="36.0" height="18.0" fill="#282c34"/>
<rect x="45.0" y="414.0" width="9.0" height="18.0" fill="#282c34"/>
<text x="45.0" y="427.5" fill="#c678dd" textLength="9.0" lengthAdjust="spacingAndGlyphs">~</text>
<rect x="54.0" y="414.0" width="288.0" height="18.0" fill="#282c34"/>
<text x="63.0" y="427.5" fill="#5c6370" textLength="36.0" lengthAdjust="spacingAndGlyphs">(the</text>
<text x="108.0" y="427.5" fill="#5c6370" textLength="63.0" lengthAdjust="spacingAndGlyphs">negated</text>
<text x="180.0" y="427.5" fill="#5c6370" textLength="90.0" lengthAdjust="spacingAndGlyphs">constraint</text>
<text x="279.0" y="427.5" fill="#5c6370" textLength="63.0" lengthAdjust="spacingAndGlyphs">itself)</text>
<rect x="342.0" y="414.0" width="720.0" height="18.0" fill="#282c34"/>
<rect x="1062.0" y="414.0" width="18.0" height="18.0" fill="#282c34"/>
<rect x="0.0" y="432.0" width="9.0" height="18.0" fill="#282c34"/>
<rect x="9.0" y="432.0" width="36.0" height="18.0" fill="#282c34"/>
<rect x="45.0" y="432.0" width="135.0" height="18.0" fill="#282c34"/>
<text x="45.0" y="445.5" fill="#5c6370" textLength="108.0" lengthAdjust="spacingAndGlyphs">ConstraintId</text>
<text x="162.0" y="445.5" fill="#5c6370" textLength="18.0" lengthAdjust="spacingAndGlyphs">2:</text>
<rect x="180.0" y="432.0" width="36.0" height="18.0" fill="#282c34"/>
<text x="189.0" y="445.5" fill="#abb2bf" textLength="9.0" lengthAdjust="spacingAndGlyphs">1</text>
<text x="207.0" y="445.5" fill="#abb2bf" textLength="9.0" lengthAdjust="spacingAndGlyphs">~</text>
<rect x="216.0" y="432.0" width="18.0" height="18.0" fill="#282c34"/>
<text x="216.0" y="445.5" fill="#56b6c2" textLength="18.0" lengthAdjust="spacingAndGlyphs">x1</text>
<rect x="234.0" y="432.0" width="27.0" height="18.0" fill="#282c34"/>
<text x="243.0" y="445.5" fill="#abb2bf" textLength="9.0" lengthAdjust="spacingAndGlyphs">1</text>
<rect x="261.0" y="432.0" width="18.0" height="18.0" fill="#282c34"/>
<text x="261.0" y="445.5" fill="#56b6c2" textLength="18.0" lengthAdjust="spacingAndGlyphs">x3</text>
<rect x="279.0" y="432.0" width="783.0" height="18.0" fill="#282c34"/>
<text x="288.0" y="445.5" fill="#abb2bf" textLength="18.0" lengthAdjust="spacingAndGlyphs">&gt;=</text>
<text x="315.0" y="445.5" fill="#abb2bf" textLength="9.0" lengthAdjust="spacingAndGlyphs">1</text>
<rect x="1062.0" y="432.0" width="18.0" height="18.0" fill="#282c34"/>
<rect x="0.0" y="450.0" width="9.0" height="18.0" fill="#282c34"/>
<rect x="9.0" y="450.0" width="36.0" height="18.0" fill="#282c34"/>
<rect x="45.0" y="450.0" width="135.0" height="18.0" fill="#282c34"/>
<text x="45.0" y="463.5" fill="#5c6370" textLength="108.0" lengthAdjust="spacingAndGlyphs">ConstraintId</text>
<text x="162.0" y="463.5" fill="#5c6370" textLength="18.0" lengthAdjust="spacingAndGlyphs">3:</text>
<rect x="180.0" y="450.0" width="36.0" height="18.0" fill="#282c34"/>
<text x="189.0" y="463.5" fill="#abb2bf" textLength="9.0" lengthAdjust="spacingAndGlyphs">1</text>
<text x="207.0" y="463.5" fill="#abb2bf" textLength="9.0" lengthAdjust="spacingAndGlyphs">~</text>
<rect x="216.0" y="450.0" width="18.0" height="18.0" fill="#282c34"/>
<text x="216.0" y="463.5" fill="#56b6c2" textLength="18.0" lengthAdjust="spacingAndGlyphs">x2</text>
<rect x="234.0" y="450.0" width="27.0" height="18.0" fill="#282c34"/>
<text x="243.0" y="463.5" fill="#abb2bf" textLength="9.0" lengthAdjust="spacingAndGlyphs">1</text>
<rect x="261.0" y="450.0" width="18.0" height="18.0" fill="#282c34"/>
<text x="261.0" y="463.5" fill="#56b6c2" textLength="18.0" lengthAdjust="spacingAndGlyphs">x3</text>
<rect x="279.0" y="450.0" width="783.0" height="18.0" fill="#282c34"/>
<text x="288.0" y="463.5" fill="#abb2bf" textLength="18.0" lengthAdjust="spacingAndGlyphs">&gt;=</text>
<text x="315.0" y="463.5" fill="#abb2bf" textLength="9.0" lengthAdjust="spacingAndGlyphs">1</text>
<rect x="1062.0" y="450.0" width="18.0" height="18.0" fill="#282c34"/>
<rect x="0.0" y="468.0" width="9.0" height="18.0" fill="#282c34"/>
<rect x="9.0" y="468.0" width="36.0" height="18.0" fill="#282c34"/>
<rect x="45.0" y="468.0" width="135.0" height="18.0" fill="#282c34"/>
<text x="45.0" y="481.5" fill="#5c6370" textLength="108.0" lengthAdjust="spacingAndGlyphs">ConstraintId</text>
<text x="162.0" y="481.5" fill="#5c6370" textLength="18.0" lengthAdjust="spacingAndGlyphs">1:</text>
<rect x="180.0" y="468.0" width="27.0" height="18.0" fill="#282c34"/>
<text x="189.0" y="481.5" fill="#abb2bf" textLength="9.0" lengthAdjust="spacingAndGlyphs">1</text>
<rect x="207.0" y="468.0" width="18.0" height="18.0" fill="#282c34"/>
<text x="207.0" y="481.5" fill="#56b6c2" textLength="18.0" lengthAdjust="spacingAndGlyphs">x1</text>
<rect x="225.0" y="468.0" width="27.0" height="18.0" fill="#282c34"/>
<text x="234.0" y="481.5" fill="#abb2bf" textLength="9.0" lengthAdjust="spacingAndGlyphs">1</text>
<rect x="252.0" y="468.0" width="18.0" height="18.0" fill="#282c34"/>
<text x="252.0" y="481.5" fill="#56b6c2" textLength="18.0" lengthAdjust="spacingAndGlyphs">x2</text>
<rect x="270.0" y="468.0" width="801.0" height="18.0" fill="#282c34"/>
<text x="279.0" y="481.5" fill="#abb2bf" textLength="18.0" lengthAdjust="spacingAndGlyphs">&gt;=</text>
<text x="306.0" y="481.5" fill="#abb2bf" textLength="9.0" lengthAdjust="spacingAndGlyphs">1</text>
<rect x="1071.0" y="468.0" width="9.0" height="18.0" fill="#282c34"/>
<rect x="0.0" y="486.0" width="9.0" height="18.0" fill="#282c34"/>
<rect x="9.0" y="486.0" width="1062.0" height="18.0" fill="#282c34"/>
<text x="9.0" y="499.5" fill="#abb2bf" textLength="36.0" lengthAdjust="spacingAndGlyphs">pbp&gt;</text>
<text x="54.0" y="499.5" fill="#abb2bf" textLength="45.0" lengthAdjust="spacingAndGlyphs">:edit</text>
<text x="108.0" y="499.5" fill="#abb2bf" textLength="9.0" lengthAdjust="spacingAndGlyphs">3</text>
<rect x="1071.0" y="486.0" width="9.0" height="18.0" fill="#282c34"/>
<rect x="0.0" y="504.0" width="9.0" height="18.0" fill="#282c34"/>
<rect x="9.0" y="504.0" width="1062.0" height="18.0" fill="#282c34"/>
<text x="9.0" y="517.5" fill="#abb2bf" textLength="63.0" lengthAdjust="spacingAndGlyphs">Editing</text>
<text x="81.0" y="517.5" fill="#abb2bf" textLength="9.0" lengthAdjust="spacingAndGlyphs">—</text>
<text x="99.0" y="517.5" fill="#abb2bf" textLength="99.0" lengthAdjust="spacingAndGlyphs">hjkl/arrows</text>
<text x="207.0" y="517.5" fill="#abb2bf" textLength="18.0" lengthAdjust="spacingAndGlyphs">to</text>
<text x="234.0" y="517.5" fill="#abb2bf" textLength="45.0" lengthAdjust="spacingAndGlyphs">move,</text>
<text x="288.0" y="517.5" fill="#abb2bf" textLength="63.0" lengthAdjust="spacingAndGlyphs">i/a/o/O</text>
<text x="360.0" y="517.5" fill="#abb2bf" textLength="18.0" lengthAdjust="spacingAndGlyphs">to</text>
<text x="387.0" y="517.5" fill="#abb2bf" textLength="63.0" lengthAdjust="spacingAndGlyphs">insert,</text>
<text x="459.0" y="517.5" fill="#abb2bf" textLength="9.0" lengthAdjust="spacingAndGlyphs">x</text>
<text x="477.0" y="517.5" fill="#abb2bf" textLength="18.0" lengthAdjust="spacingAndGlyphs">to</text>
<text x="504.0" y="517.5" fill="#abb2bf" textLength="54.0" lengthAdjust="spacingAndGlyphs">delete</text>
<text x="567.0" y="517.5" fill="#abb2bf" textLength="9.0" lengthAdjust="spacingAndGlyphs">a</text>
<text x="585.0" y="517.5" fill="#abb2bf" textLength="45.0" lengthAdjust="spacingAndGlyphs">char,</text>
<text x="639.0" y="517.5" fill="#abb2bf" textLength="18.0" lengthAdjust="spacingAndGlyphs">dd</text>
<text x="666.0" y="517.5" fill="#abb2bf" textLength="9.0" lengthAdjust="spacingAndGlyphs">a</text>
<text x="684.0" y="517.5" fill="#abb2bf" textLength="45.0" lengthAdjust="spacingAndGlyphs">line,</text>
<text x="738.0" y="517.5" fill="#abb2bf" textLength="27.0" lengthAdjust="spacingAndGlyphs">Esc</text>
<text x="774.0" y="517.5" fill="#abb2bf" textLength="18.0" lengthAdjust="spacingAndGlyphs">to</text>
<text x="801.0" y="517.5" fill="#abb2bf" textLength="54.0" lengthAdjust="spacingAndGlyphs">leave.</text>
<rect x="1071.0" y="504.0" width="9.0" height="18.0" fill="#282c34"/>
<rect x="0.0" y="522.0" width="9.0" height="18.0" fill="#282c34"/>
<rect x="9.0" y="522.0" width="342.0" height="18.0" fill="#282c34"/>
<rect x="351.0" y="522.0" width="729.0" height="18.0" fill="#282c34"/>
<rect x="0.0" y="540.0" width="9.0" height="18.0" fill="#282c34"/>
<rect x="9.0" y="540.0" width="1062.0" height="18.0" fill="#282c34"/>
<text x="9.0" y="553.5" fill="#c678dd" textLength="18.0" lengthAdjust="spacingAndGlyphs">--</text>
<text x="36.0" y="553.5" fill="#c678dd" textLength="54.0" lengthAdjust="spacingAndGlyphs">INSERT</text>
<text x="99.0" y="553.5" fill="#c678dd" textLength="18.0" lengthAdjust="spacingAndGlyphs">--</text>
<text x="135.0" y="553.5" fill="#c678dd" textLength="27.0" lengthAdjust="spacingAndGlyphs">Esc</text>
<text x="171.0" y="553.5" fill="#c678dd" textLength="63.0" lengthAdjust="spacingAndGlyphs">commits</text>
<text x="243.0" y="553.5" fill="#c678dd" textLength="27.0" lengthAdjust="spacingAndGlyphs">the</text>
<text x="279.0" y="553.5" fill="#c678dd" textLength="36.0" lengthAdjust="spacingAndGlyphs">line</text>
<text x="324.0" y="553.5" fill="#c678dd" textLength="9.0" lengthAdjust="spacingAndGlyphs">·</text>
<text x="342.0" y="553.5" fill="#c678dd" textLength="45.0" lengthAdjust="spacingAndGlyphs">Enter</text>
<text x="396.0" y="553.5" fill="#c678dd" textLength="54.0" lengthAdjust="spacingAndGlyphs">splits</text>
<text x="459.0" y="553.5" fill="#c678dd" textLength="18.0" lengthAdjust="spacingAndGlyphs">it</text>
<rect x="1071.0" y="540.0" width="9.0" height="18.0" fill="#282c34"/>
<rect x="0.0" y="558.0" width="1080.0" height="18.0" fill="#282c34"/>
<line x1="4.5" y1="9.0" x2="18.0" y2="9.0" stroke="#5c6370" stroke-width="1.2"/>
<line x1="234.0" y1="9.0" x2="288.0" y2="9.0" stroke="#5c6370" stroke-width="1.2"/>
<line x1="351.0" y1="9.0" x2="369.0" y2="9.0" stroke="#5c6370" stroke-width="1.2"/>
<line x1="495.0" y1="9.0" x2="639.0" y2="9.0" stroke="#5c6370" stroke-width="1.2"/>
<line x1="702.0" y1="9.0" x2="720.0" y2="9.0" stroke="#5c6370" stroke-width="1.2"/>
<line x1="945.0" y1="9.0" x2="1008.0" y2="9.0" stroke="#5c6370" stroke-width="1.2"/>
<line x1="1071.0" y1="9.0" x2="1075.5" y2="9.0" stroke="#5c6370" stroke-width="1.2"/>
<line x1="4.5" y1="9.0" x2="4.5" y2="567.0" stroke="#5c6370" stroke-width="1.2"/>
<line x1="355.5" y1="9.0" x2="355.5" y2="342.0" stroke="#5c6370" stroke-width="1.2"/>
<line x1="706.5" y1="9.0" x2="706.5" y2="342.0" stroke="#5c6370" stroke-width="1.2"/>
<line x1="1075.5" y1="9.0" x2="1075.5" y2="567.0" stroke="#5c6370" stroke-width="1.2"/>
<line x1="4.5" y1="351.0" x2="18.0" y2="351.0" stroke="#5c6370" stroke-width="1.2"/>
<line x1="90.0" y1="351.0" x2="1008.0" y2="351.0" stroke="#5c6370" stroke-width="1.2"/>
<line x1="1071.0" y1="351.0" x2="1075.5" y2="351.0" stroke="#5c6370" stroke-width="1.2"/>
<line x1="1066.5" y1="360.0" x2="1066.5" y2="468.0" stroke="#5c6370" stroke-width="1.2"/>
<line x1="1066.5" y1="468.0" x2="1066.5" y2="522.0" stroke="#abb2bf" stroke-width="3.0"/>
<line x1="9.0" y1="531.0" x2="351.0" y2="531.0" stroke="#abb2bf" stroke-width="3.0"/>
<line x1="351.0" y1="531.0" x2="1071.0" y2="531.0" stroke="#5c6370" stroke-width="1.2"/>
<line x1="4.5" y1="567.0" x2="1075.5" y2="567.0" stroke="#5c6370" stroke-width="1.2"/>
<rect x="954.0" y="54.0" width="9.0" height="18.0" fill="#abb2bf"/>
<text x="954.0" y="67.5" fill="#7f1d1d">;</text>
</g></svg>